<svg width="30" height="30" viewBox="0 0 30 30" fill="none" xmlns="http://www.w3.org/2000/svg">
<path d="M15 5.16808e-08C12.0333 5.16808e-08 9.13319 0.879735 6.66645 2.52796C4.19971 4.17618 2.27713 6.51885 1.14181 9.25975C0.00649929 12.0006 -0.290551 15.0166 0.288227 17.9264C0.867006 20.8361 2.29562 23.5088 4.3934 25.6066C6.49119 27.7044 9.16393 29.133 12.0736 29.7118C14.9834 30.2906 17.9994 29.9935 20.7403 28.8582C23.4811 27.7229 25.8238 25.8003 27.472 23.3335C29.1203 20.8668 30 17.9667 30 15C30.0002 13.0301 29.6123 11.0795 28.8585 9.25955C28.1048 7.4396 26.9999 5.78594 25.607 4.39303C24.2141 3.00012 22.5604 1.89524 20.7404 1.14147C18.9205 0.387712 16.9699 -0.000163468 15 5.16808e-08ZM19.7693 22.7287C19.7131 22.8687 19.6277 22.9951 19.5187 23.0993C19.4097 23.2036 19.2797 23.2834 19.1374 23.3333C18.9951 23.3833 18.8437 23.4022 18.6935 23.3888C18.5432 23.3755 18.3976 23.3302 18.2663 23.2559L14.1943 20.0919L11.5808 22.503C11.5201 22.5478 11.4492 22.5766 11.3745 22.5868C11.2998 22.597 11.2237 22.5883 11.1533 22.5614L11.6543 18.0787L11.6703 18.0914L11.6806 18.0029C11.6806 18.0029 19.0081 11.3317 19.3066 11.0474C19.6088 10.7639 19.5091 10.7024 19.5091 10.7024C19.5263 10.3566 18.9668 10.7024 18.9668 10.7024L9.258 16.9485L5.21477 15.5715C5.21477 15.5715 4.59377 15.3487 4.53527 14.859C4.47377 14.373 5.23501 14.109 5.23501 14.109L21.3105 7.72273C21.3105 7.72273 22.632 7.13395 22.632 8.109L19.7693 22.7287Z" fill="#22A6E6"/>
<path d="M19.7688 22.729C19.7126 22.869 19.6272 22.9954 19.5182 23.0997C19.4093 23.204 19.2792 23.2837 19.1369 23.3337C18.9946 23.3836 18.8432 23.4025 18.693 23.3892C18.5427 23.3758 18.3971 23.3305 18.2658 23.2563L14.1938 20.0922L11.5803 22.5033C11.5197 22.5481 11.4487 22.577 11.374 22.5872C11.2993 22.5974 11.2232 22.5886 11.1528 22.5617L11.6538 18.0791L11.6698 18.0918L11.6801 18.0033C11.6801 18.0033 19.0076 11.332 19.3061 11.0478C19.6083 10.7643 19.5086 10.7028 19.5086 10.7028C19.5258 10.357 18.9663 10.7028 18.9663 10.7028L9.25752 16.9488L5.21429 15.5718C5.21429 15.5718 4.59329 15.3491 4.53479 14.8593C4.47329 14.3733 5.23452 14.1093 5.23452 14.1093L21.31 7.72307C21.31 7.72307 22.6315 7.13429 22.6315 8.10933L19.7688 22.729Z" fill="white"/>
</svg>
