<svg width="30" height="30" viewBox="0 0 30 30" fill="none" xmlns="http://www.w3.org/2000/svg">
<path d="M15 30C23.2843 30 30 23.2843 30 15C30 6.71573 23.2843 0 15 0C6.71573 0 0 6.71573 0 15C0 23.2843 6.71573 30 15 30Z" fill="#4169E1"/>
<path d="M24.2215 21.6412C23.7561 21.6981 21.4796 21.6412 21.3614 21.6412C20.773 21.6477 20.2052 21.4523 19.7814 21.0972C19.3013 20.6955 18.8722 20.2527 18.4031 19.8321C18.2644 19.7044 18.1142 19.5865 17.954 19.4794C17.5795 19.228 17.2085 19.2849 17.0322 19.6692C16.8944 20.0845 16.7982 20.5093 16.7449 20.9391C16.714 21.3281 16.4303 21.5716 15.9285 21.5985C15.6176 21.6127 15.3067 21.6175 14.9994 21.6112C13.8795 21.6049 12.7773 21.3681 11.7829 20.9201C10.707 20.3986 9.76958 19.6857 9.03188 18.8279C7.81911 17.4805 6.84998 16.0004 5.9845 14.4743C5.93904 14.3984 5.05174 12.7569 5.02992 12.6794C4.94991 12.4201 5.02992 12.1718 5.27538 12.0864C5.43175 12.0342 8.35549 12.0864 8.40458 12.0864C8.62194 12.0848 8.83426 12.1433 9.01079 12.2537C9.18731 12.364 9.31888 12.5203 9.38644 12.7C9.92692 13.9036 10.6669 15.032 11.5829 16.0494C11.7111 16.1854 11.8611 16.3047 12.0284 16.4036C12.2665 16.5444 12.492 16.4953 12.5902 16.2565C12.7065 15.9252 12.7749 15.5826 12.7938 15.2365C12.8102 14.5502 12.7938 14.0979 12.7502 13.4132C12.7211 12.9736 12.5429 12.5877 11.7974 12.4644C11.5683 12.4296 11.5483 12.2651 11.6956 12.1006C12.0029 11.7591 12.4229 11.7053 12.8938 11.6847C13.5957 11.6499 14.2975 11.6737 14.9994 11.6847H15.1521C15.4576 11.6838 15.7623 11.7108 16.0612 11.7654C16.2379 11.7965 16.3984 11.8764 16.5186 11.9932C16.6389 12.1101 16.7125 12.2576 16.7285 12.4138C16.7644 12.5869 16.7797 12.7629 16.774 12.9388C16.7558 13.6884 16.714 14.4364 16.7049 15.1859C16.6965 15.4827 16.7276 15.7794 16.7976 16.0699C16.8976 16.4685 17.2122 16.5681 17.5249 16.2803C17.9299 15.9082 18.3013 15.5096 18.6359 15.0879C19.2275 14.3194 19.7156 13.4943 20.0905 12.6288C20.2941 12.1845 20.4541 12.0864 20.9996 12.0864H24.1015C24.286 12.0836 24.4698 12.1049 24.647 12.1497C24.7097 12.164 24.7683 12.1894 24.8192 12.2244C24.8701 12.2593 24.9121 12.303 24.9427 12.3528C24.9732 12.4025 24.9916 12.4572 24.9968 12.5134C25.0019 12.5696 24.9936 12.6261 24.9725 12.6794C24.8197 13.2709 24.4524 13.7753 24.0633 14.2608C23.4324 15.0389 22.7669 15.7964 22.1214 16.5618C22.0398 16.6633 21.9651 16.7689 21.8978 16.878C21.6542 17.2592 21.6723 17.4726 22.0251 17.7905C22.5887 18.2934 23.1906 18.7662 23.7342 19.2849C24.1334 19.662 24.4936 20.0689 24.8106 20.501C25.2088 21.0371 24.9634 21.5495 24.2215 21.6412Z" fill="white"/>
</svg>
