<svg width="30" height="30" viewBox="0 0 30 30" fill="none" xmlns="http://www.w3.org/2000/svg">
<path d="M15.0038 0H14.9963C6.72564 0 1.96817e-05 6.72749 1.96817e-05 15C-0.00511613 18.1594 0.994986 21.2385 2.85564 23.7918L0.986269 29.3643L6.75189 27.5212C9.19758 29.1438 12.0688 30.0063 15.0038 30C23.2744 30 30 23.2706 30 15C30 6.72937 23.2744 0 15.0038 0ZM23.7319 21.1819C23.37 22.2037 21.9338 23.0512 20.7881 23.2987C20.0044 23.4656 18.9806 23.5987 15.5344 22.17C11.1263 20.3437 8.28751 15.8644 8.06626 15.5737C7.85439 15.2831 6.28502 13.2019 6.28502 11.0494C6.28502 8.89687 7.37814 7.84874 7.81876 7.39874C8.18064 7.02937 8.77876 6.86062 9.35251 6.86062C9.53814 6.86062 9.70501 6.86999 9.85501 6.87749C10.2956 6.89624 10.5169 6.92249 10.8075 7.61812C11.1694 8.48999 12.0506 10.6425 12.1556 10.8637C12.2625 11.085 12.3694 11.385 12.2194 11.6756C12.0788 11.9756 11.955 12.1087 11.7338 12.3637C11.5125 12.6187 11.3025 12.8137 11.0813 13.0875C10.8788 13.3256 10.65 13.5806 10.905 14.0212C11.16 14.4525 12.0413 15.8906 13.3388 17.0456C15.0131 18.5362 16.3706 19.0125 16.8563 19.215C17.2181 19.365 17.6494 19.3294 17.9138 19.0481C18.2494 18.6862 18.6638 18.0862 19.0856 17.4956C19.3856 17.0719 19.7644 17.0194 20.1619 17.1694C20.5669 17.31 22.71 18.3694 23.1506 18.5887C23.5913 18.81 23.8819 18.915 23.9888 19.1006C24.0938 19.2862 24.0938 20.1581 23.7319 21.1819Z" fill="#55CD62"/>
<path d="M23.732 21.1816C23.3701 22.2035 21.9339 23.051 20.7883 23.2985C20.0045 23.4653 18.9808 23.5985 15.5345 22.1697C11.1264 20.3435 8.28766 15.8641 8.06641 15.5735C7.85453 15.2828 6.28516 13.2016 6.28516 11.0491C6.28516 8.8966 7.37828 7.84848 7.81891 7.39848C8.18078 7.0291 8.7789 6.86035 9.35265 6.86035C9.53828 6.86035 9.70515 6.86973 9.85515 6.87723C10.2958 6.89598 10.517 6.92223 10.8077 7.61785C11.1695 8.48973 12.0508 10.6422 12.1558 10.8635C12.2627 11.0847 12.3695 11.3847 12.2195 11.6753C12.0789 11.9753 11.9552 12.1085 11.7339 12.3635C11.5127 12.6185 11.3027 12.8135 11.0814 13.0872C10.8789 13.3253 10.6502 13.5803 10.9052 14.021C11.1602 14.4522 12.0414 15.8903 13.3389 17.0453C15.0133 18.536 16.3708 19.0122 16.8564 19.2147C17.2183 19.3647 17.6495 19.3291 17.9139 19.0478C18.2495 18.686 18.6639 18.086 19.0858 17.4953C19.3858 17.0716 19.7645 17.0191 20.162 17.1691C20.567 17.3097 22.7101 18.3691 23.1508 18.5885C23.5914 18.8097 23.882 18.9147 23.9889 19.1003C24.0939 19.286 24.0939 20.1578 23.732 21.1816Z" fill="white"/>
</svg>
